<?xml version="1.0" encoding="UTF-8"?>
<svg id="Warstwa_1" data-name="Warstwa 1" xmlns="http://www.w3.org/2000/svg" version="1.1" xmlns:xlink="http://www.w3.org/1999/xlink" viewBox="0 0 800 800">
  <defs>
    <style>
      .cls-1 {
        clip-path: url(#clippath-2);
      }

      .cls-2 {
        fill: none;
      }

      .cls-2, .cls-3 {
        stroke-width: 0px;
      }

      .cls-4 {
        clip-path: url(#clippath-1);
      }

      .cls-3 {
        fill: #007afe;
      }

      .cls-5 {
        clip-path: url(#clippath);
      }

      .cls-6 {
        clip-path: url(#clippath-3);
      }
    </style>
    <clipPath id="clippath">
      <rect class="cls-2" x="-595.4" y="-537" width="1991.4" height="1873"/>
    </clipPath>
    <clipPath id="clippath-1">
      <rect class="cls-2" x="-595.4" y="-537" width="1991.4" height="1873"/>
    </clipPath>
    <clipPath id="clippath-2">
      <rect class="cls-2" x="-595.4" y="-537" width="1991.4" height="1873"/>
    </clipPath>
    <clipPath id="clippath-3">
      <rect class="cls-2" x="-595.4" y="-537" width="1991.4" height="1873"/>
    </clipPath>
  </defs>
  <g class="cls-5">
    <path class="cls-3" d="M2.5,448.7C.5,247.5,132.9,82.5,315,42.9c221.2-48.2,437.9,96.8,477.5,320.5,28.1,158-45.1,321.5-181.6,405.3-14.5,9-29.1,7-37.1-5.5-8-12.5-4-27.1,11-36.6,89.3-58.2,143.5-139.4,160.5-244.8,23.1-144.5-52.7-291.9-183.1-359.7C357.2,16.3,110.4,131.2,59.7,356.4c-32.1,143.5,32.1,293.4,158,371.2,3,2,6.5,4,9.5,6,11.5,8,14.5,22.1,7.5,33.6-7,11-21.1,15-33.1,8.5-27.1-15-51.7-33.6-74.2-55.2C45.6,642.3,4.5,545.5,2.5,448.7"/>
  </g>
  <g class="cls-4">
    <path class="cls-3" d="M121.9,439.1c.5-152.5,103.8-270.9,240.8-289.4,149.5-20.1,288.9,81.8,312,231.7,17.6,114.9-24.6,207.7-118.9,275.4-13.5,10-28.6,7.5-37.1-5-8-12-4-26.1,9.5-36.1,73.2-52.7,106.8-123.9,99.8-213.7-7-93.8-81.8-178.1-174.6-199.1-129.4-29.6-253.8,51.7-278.9,181.6-17.6,89.8,23.6,183.1,102.3,234.3,8.5,5.5,15.6,11,16.6,22.1.5,9.5-3,17.6-11,22.6-9,5.5-18.1,5-27.1,0-30.1-18.1-55.7-41.1-76.7-69.2-37.6-49.2-56.2-105.8-56.7-155"/>
  </g>
  <g class="cls-1">
    <path class="cls-3" d="M400.3,262.1c67.7,0,127.9,42.6,150,105.8,22.1,63.2,2,133.9-49.2,175.6-10.5,8.5-21.6,9.5-31.1,3-9-5.5-13-16.6-10-27.1,1.5-6.5,5.5-10.5,10.5-14.5,34.6-30.1,47.2-68.2,35.6-111.9-11.5-44.6-42.1-71.2-86.8-80.3-47.2-9.5-96.8,16.6-117.9,61.2-21.1,44.1-9.5,98.3,27.6,129.9,3,2.5,6.5,5,9.5,7.5,11.5,9,14,23.1,6,34.6-8.5,11.5-22.6,14-35.1,5-32.1-22.6-53.2-53.2-63.2-90.8-26.1-100.3,50.2-198.1,154-198.1"/>
  </g>
  <g class="cls-6">
    <path class="cls-3" d="M436.4,419.6c0,20.6-16.6,36.6-37.6,36.6-20.6-.5-36.6-17.1-36.1-37.6.5-20.1,17.1-36.1,37.1-36.1s36.6,16.6,36.6,37.1"/>
  </g>
</svg>