<?xml version="1.0" encoding="UTF-8"?>
<svg id="Warstwa_1" data-name="Warstwa 1" xmlns="http://www.w3.org/2000/svg" version="1.1" viewBox="0 0 800 800">
  <defs>
    <style>
      .cls-1 {
        display: none;
      }

      .cls-1, .cls-2 {
        fill: #007afe;
        stroke-width: 0px;
      }
    </style>
  </defs>
  <path class="cls-1" d="M398.5,110.5l22.3-38.5c13.7-24,44.3-32.1,68.4-18.4,24,13.7,32.1,44.3,18.4,68.4l-214.4,371.2h155.1c50.2,0,78.4,59,56.6,100H50.4c-27.7,0-50-22.3-50-50s22.3-50,50-50h127.4l163.2-282.7-51-88.5c-13.7-24-5.6-54.4,18.4-68.4,24-13.7,54.4-5.6,68.4,18.4l21.8,38.5h0ZM205.7,644.6l-48,83.3c-13.7,24-44.3,32.1-68.4,18.4-24-13.7-32.1-44.3-18.4-68.4l35.8-61.7c40.2-12.5,73-2.9,99,28.4h0ZM619.5,493.5h130.1c27.7,0,50,22.3,50,50s-22.3,50-50,50h-72.3l48.8,84.5c13.7,24,5.6,54.4-18.4,68.4-24,13.7-54.4,5.6-68.4-18.4-82.1-142.4-143.8-248.9-184.7-320-41.9-72.3-12-144.8,17.6-169.3,32.8,56.4,81.8,141.4,147.3,254.8h0Z"/>
  <g>
    <path class="cls-2" d="M-1.2,538.6c0-.2,0-.4,0-.6,0,.2,0,.4,0,.6Z"/>
    <path class="cls-2" d="M-1.3,537.3s0,0,0,0c0-.6,0-1.1,0-1.7,0,.5,0,1.1,0,1.7Z"/>
    <path class="cls-2" d="M796.8,530c.5,1.7.9,3.6,1,5.4-1-12.9-11.8-23.1-24.9-23.1h-168.7s-177.9-308.2-177.9-308.2l69.2-119.9c6.9-12,2.8-27.2-9.2-34.2h0c-12-6.9-27.2-2.8-34.2,9.2l-54.8,94.9-54.8-94.9c-6.9-12-22.2-16.1-34.2-9.2s-16.1,22.2-9.2,34.2l69.2,119.9-177.9,308.2H23.7c-13.2,0-24.1,10.3-24.9,23.3.1-1.7.4-3.4.9-5-.5,2.6-.8,5.3-.9,8.1.7,13.2,11.6,23.6,25,23.6h138.1s-84.4,146.2-84.4,146.2c-6.9,12-2.8,27.2,9.2,34.2h0c12,6.9,27.2,2.8,34.2-9.2l63.7-110.4c-14.6-10.5-30.9-15.5-49-15.1l10.2-17.8h57.7l16.1-28h291c.7-18-5.6-36.3-17.2-49.9h21.5c9.1,15.8,18.7,32.4,28.8,49.9h31.6l98.9,171.2c5.9,10.1,17.8,14.6,28.5,11.5,1.1-.5,2.2-1.1,3.2-1.7,3.8-2.2,7.2-4.9,10.2-7.8,5.5-7.7,6.4-18.3,1.3-27l-84.4-146.2h139.8c13.3,0,24.2-10.4,25-23.5-.1-3-.5-6-1.1-8.8ZM486.5,50.1h0c.1,0,.3.2.4.2-1.1-.6-2.2-1.1-3.3-1.6,1,.4,1.9.9,2.9,1.4ZM248.5,512.3l149-258.2,15.2,26.3,28.9-50,13.3,23.1c-10.6,15.7-19.3,37.3-21.8,62.1l113.5,196.7H248.5Z"/>
    <path class="cls-2" d="M797.9,535.5c0,.6,0,1.2,0,1.8,0,0,0,0,0,0h0c0-.6,0-1.2,0-1.8Z"/>
    <path class="cls-2" d="M798,537.8c0,.3,0,.6,0,.9,0-.3,0-.6,0-.9Z"/>
  </g>
</svg>