<?xml version="1.0" encoding="UTF-8"?>
<svg id="Warstwa_2" data-name="Warstwa 2" xmlns="http://www.w3.org/2000/svg" version="1.1" viewBox="0 0 800 800">
  <defs>
    <style>
      .cls-1 {
        fill: #007afe;
        stroke-width: 0px;
      }
    </style>
  </defs>
  <path class="cls-1" d="M700,129.9h-341.8c-9.7,0-18.1-5-23-12.6-14.6-37.5-51-64.1-93.7-64.1H100.5C45,53.2,0,98.2,0,153.7v493.1c0,55.2,44.8,100,100,100h600c55.2,0,100-44.8,100-100V254.3c0-68.7-44.8-124.4-100-124.4ZM750,621.2c0,35-22.8,63.4-51,63.4H101c-28.2,0-51-28.4-51-63.4v-269.4c0-28.2,22.8-51,51-51h598c28.2,0,51,22.8,51,51v269.4ZM750,264.2c-14.7-8.5-31.8-13.4-50-13.4H100c-18.2,0-35.3,4.9-50,13.4v-8.7c0-5.2.5-10.3,1.5-15.2h-1.5v-86.6c0-27.9,22.6-50.5,50.5-50.5h141c27.9,0,50.5,22.6,50.5,50.5v4.5c0,.9-.1,1.8-.1,2.8h0c0,11.7,6.5,22,16.1,27.3h0c3.5,2,7.5,3.2,11.7,3.7,0,0,.1,0,.2,0,.4,0,.9,0,1.4.1.3,0,.7,0,1,0,.2,0,.4,0,.6,0h376.2c28.2,0,51,28.4,51,63.4v8.7Z"/>
</svg>