<?xml version="1.0" encoding="UTF-8"?>
<svg id="Warstwa_2" data-name="Warstwa 2" xmlns="http://www.w3.org/2000/svg" version="1.1" viewBox="0 0 800 800">
  <defs>
    <style>
      .cls-1 {
        display: none;
        fill: #2a98ea;
      }

      .cls-1, .cls-2 {
        stroke-width: 0px;
      }

      .cls-2 {
        fill: #007afe;
      }
    </style>
  </defs>
  <path class="cls-1" d="M93.5,321.2h450c13.8,0,25,11.2,25,25h0c0,13.8-11.2,25-25,25H93.5c-13.8,0-25-11.2-25-25h0c0-13.8,11.2-25,25-25Z"/>
  <path class="cls-2" d="M699.5,99.4H100.5C45,99.4,0,154.5,0,222.5v353c0,68,45,123.1,100.5,123.1h599.1c55.5,0,100.5-55.1,100.5-123.1V222.5c0-68-45-123.1-100.5-123.1h0ZM750,574.9c0,34.5-22.8,62.5-51,62.5H101c-28.2,0-51-28-51-62.5V223.2c0-34.5,22.8-62.5,51-62.5h598c28.2,0,51,28,51,62.5v351.7Z"/>
  <path class="cls-2" d="M25,190h750c13.8,0,25,11.2,25,25h0c0,13.8-11.2,25-25,25H25c-13.8,0-25-11.2-25-25h0c0-13.8,11.2-25,25-25Z"/>
  <path class="cls-2" d="M150,480.3h500c27.6,0,50,22.4,50,50h0c0,27.6-22.4,50-50,50H150c-27.6,0-50-22.4-50-50h0c0-27.6,22.4-50,50-50Z"/>
</svg>