<?xml version="1.0" encoding="UTF-8"?>
<svg id="Warstwa_2" data-name="Warstwa 2" xmlns="http://www.w3.org/2000/svg" version="1.1" viewBox="0 0 800 800">
  <defs>
    <style>
      .cls-1 {
        fill: #007afe;
        stroke-width: 0px;
      }
    </style>
  </defs>
  <path class="cls-1" d="M407.4,25h0c9.8-9.8,25.6-9.8,35.4,0l197.8,197.8c9.8,9.8,9.8,25.6,0,35.4h0c-9.8,9.8-25.6,9.8-35.4,0L407.4,60.3c-9.8-9.8-9.8-25.6,0-35.4Z"/>
  <path class="cls-1" d="M582.6,231.7h-98.9c-27.5,0-49.9-22.3-49.9-49.9v-98.9l-50-50v148.4c0,55.4,44.9,100.4,100.4,100.4h148.4l-50-50h0Z"/>
  <path class="cls-1" d="M616.5,199.2v501c0,27.5-22.3,49.9-49.9,49.9H233.4c-27.5,0-49.9-22.3-49.9-49.9V99.9c0-27.5,22.3-49.9,49.9-49.9h234L417.3,0h-183.4c-55.4,0-100.4,44.9-100.4,100.4v599.2c0,55.4,44.9,100.4,100.4,100.4h332.2c55.4,0,100.4-44.9,100.4-100.4V249.2l-50-50Z"/>
</svg>