<?xml version="1.0" encoding="UTF-8"?>
<svg id="Warstwa_2" data-name="Warstwa 2" xmlns="http://www.w3.org/2000/svg" version="1.1" viewBox="0 0 800 800">
  <defs>
    <style>
      .cls-1 {
        fill: #007afe;
        stroke-width: 0px;
      }
    </style>
  </defs>
  <path class="cls-1" d="M400,0C179.1,0,0,179.1,0,400s179.1,400,400,400,400-179.1,400-400S620.9,0,400,0ZM400,750c-193.3,0-350-156.7-350-350S206.7,50,400,50s350,156.7,350,350-156.7,350-350,350Z"/>
  <path class="cls-1" d="M400,150h0c13.8,0,25,11.2,25,25v450c0,13.8-11.2,25-25,25h0c-13.8,0-25-11.2-25-25V175c0-13.8,11.2-25,25-25Z"/>
  <path class="cls-1" d="M205.5,430.5h0c9.8-9.8,25.6-9.8,35.4,0l176.8,176.8c9.8,9.8,9.8,25.6,0,35.4h0c-9.8,9.8-25.6,9.8-35.4,0l-176.8-176.8c-9.8-9.8-9.8-25.6,0-35.4Z"/>
  <rect class="cls-1" x="338.4" y="511.6" width="300" height="50" rx="25" ry="25" transform="translate(-236.4 502.5) rotate(-45)"/>
</svg>