<?xml version="1.0" encoding="UTF-8"?>
<svg id="Warstwa_1" data-name="Warstwa 1" xmlns="http://www.w3.org/2000/svg" version="1.1" viewBox="0 0 800 800">
  <defs>
    <style>
      .cls-1 {
        fill: #007afe;
        stroke-width: 0px;
      }
    </style>
  </defs>
  <path class="cls-1" d="M782.3,395.3l-107.9-246.7c-11.9-27.3-44.6-48.6-74.4-48.6H200c-29.8,0-62.4,21.4-74.4,48.6L17.7,395.3C7.8,418.1,0,455.2,0,480v160C0,673.1,26.9,700,60,700h680c33.1,0,60-26.9,60-60v-160c0-24.8-7.8-62-17.7-84.7ZM162.3,164.7c5.6-12.9,23.6-24.7,37.7-24.7h400c14.1,0,32.1,11.8,37.7,24.7l107.9,246.7c1.2,2.8,2.4,5.9,3.6,9.3-3-.5-6.1-.7-9.2-.7h-240c-11,0-20,9-20,20v20c0,44.1-35.9,80-80,80s-80-35.9-80-80v-20c0-11-9-20-20-20H60c-3.1,0-6.2.2-9.2.7,1.2-3.4,2.3-6.6,3.6-9.3l107.9-246.7h0ZM760,640c0,11-9,20-20,20H60c-11,0-20-9-20-20v-160c0-11,9-20,20-20h220c0,66.2,53.8,120,120,120s120-53.8,120-120h220c11,0,20,9,20,20v160h0Z"/>
</svg>