<?xml version="1.0" encoding="UTF-8"?>
<svg id="Warstwa_1" data-name="Warstwa 1" xmlns="http://www.w3.org/2000/svg" version="1.1" viewBox="0 0 800 800">
  <defs>
    <style>
      .cls-1 {
        fill: #007afe;
        fill-rule: evenodd;
        stroke-width: 0px;
      }
    </style>
  </defs>
  <path class="cls-1" d="M246.7,182.9h-127.1c-17.1,0-31,13.9-31,31s13.9,31,31,31h32.9l25.6,409c3.1,49,43.7,87.2,92.9,87.2h255.6c49.1,0,89.8-38.2,92.9-87.2l25.6-409h32.9c17.1,0,31-13.9,31-31s-13.9-31-31-31h-61.8c-.2,0-.3,0-.5,0h-64.8c-14.4-70.8-76.9-124-152-124s-137.6,53.3-152,124ZM311,182.9h175.5c-12.8-36.1-47.2-62-87.7-62s-75,25.9-87.7,62ZM582.8,244.9H214.6l25.3,405.1c1,16.3,14.6,29.1,31,29.1h255.6c16.4,0,29.9-12.7,31-29.1l25.3-405.1ZM469.4,338.3c17.1,1.2,30,16,28.8,33.1l-13,185.6c-1.2,17.1-16,30-33.1,28.8-17.1-1.2-30-16-28.8-33.1l13-185.6c1.2-17.1,16-30,33.1-28.8ZM328,338.3c17.1-1.2,31.9,11.7,33.1,28.8l13,185.6c1.2,17.1-11.7,31.9-28.8,33.1-17.1,1.2-31.9-11.7-33.1-28.8l-13-185.6c-1.2-17.1,11.7-31.9,28.8-33.1Z"/>
</svg>